%
M48
M72
T01C0.0276
T02C0.0315
T03C0.0320
T04C0.0354
T05C0.0400
T06C0.0440
T07C0.1180
%
T01
X7702Y7661
X7702Y8661
X14502Y20661
X15502Y20661
X15502Y21661
X14502Y21661
T02
X22452Y17661
X22452Y16661
X22452Y15661
X22452Y14661
X25552Y14661
X25552Y15661
X25552Y16661
X25552Y17661
T03
X19502Y17661
X19502Y18661
X19502Y19661
X16502Y19661
X16502Y18661
X16502Y17661
X16502Y16661
X16502Y15661
X16502Y14661
X16502Y13661
X16502Y12661
X19502Y12661
X19502Y13661
X19502Y14661
X19502Y15661
X19502Y16661
X15002Y17161
X12502Y16661
X12502Y15661
X12502Y14661
X12502Y13661
X12502Y12661
X13002Y10661
X15252Y9011
X16402Y7111
X16152Y5611
X13752Y6061
X13002Y7161
X9502Y12661
X9502Y13661
X9502Y14661
X9502Y15661
X9502Y16661
X9502Y17661
X9502Y18661
X9502Y19661
X12502Y19661
X12502Y18661
X12502Y17661
X15852Y22661
X6252Y19661
X5502Y19161
X5502Y20161
T04
X5002Y5661
X5002Y9661
X8502Y21661
X8502Y22661
X8502Y23661
X12502Y23661
X12502Y22661
X12502Y21661
X21002Y20261
X21002Y16261
X21502Y11661
X25502Y11661
T05
X7502Y16161
X7502Y17161
X7252Y6211
X6252Y6211
T06
X9502Y4161
X10502Y4161
X11502Y4161
X12502Y4161
X13502Y4161
X14502Y4161
X15502Y4161
X16502Y4161
X17502Y4161
X18502Y4161
X19502Y4161
X21502Y13161
X25502Y13161
T07
X5895Y13161
X4714Y11311
X3533Y13161
M30
