G75*
G70*
%OFA0B0*%
%FSLAX24Y24*%
%IPPOS*%
%LPD*%
%AMOC8*
5,1,8,0,0,1.08239X$1,22.5*
%
%ADD10C,0.0050*%
%ADD11C,0.0060*%
%ADD12C,0.0080*%
%ADD13R,0.0200X0.1000*%
%ADD14R,0.0750X0.0300*%
D10*
X004947Y006786D02*
X004857Y006876D01*
X005127Y006876D01*
X005127Y006786D02*
X005127Y006966D01*
X005127Y007081D02*
X004857Y007081D01*
X004992Y007126D02*
X005127Y007261D01*
X005037Y007081D02*
X004857Y007261D01*
X009663Y006815D02*
X009663Y008508D01*
X012301Y008508D01*
X012301Y006815D01*
X009663Y006815D01*
X011977Y008291D02*
X011979Y008309D01*
X011985Y008327D01*
X011994Y008343D01*
X012006Y008356D01*
X012021Y008367D01*
X012038Y008375D01*
X012056Y008379D01*
X012074Y008379D01*
X012092Y008375D01*
X012109Y008367D01*
X012124Y008356D01*
X012136Y008343D01*
X012145Y008327D01*
X012151Y008309D01*
X012153Y008291D01*
X012151Y008273D01*
X012145Y008255D01*
X012136Y008239D01*
X012124Y008226D01*
X012109Y008215D01*
X012092Y008207D01*
X012074Y008203D01*
X012056Y008203D01*
X012038Y008207D01*
X012021Y008215D01*
X012006Y008226D01*
X011994Y008239D01*
X011985Y008255D01*
X011979Y008273D01*
X011977Y008291D01*
X016663Y008508D02*
X016663Y006815D01*
X019301Y006815D01*
X019301Y008508D01*
X016663Y008508D01*
X018977Y008291D02*
X018979Y008309D01*
X018985Y008327D01*
X018994Y008343D01*
X019006Y008356D01*
X019021Y008367D01*
X019038Y008375D01*
X019056Y008379D01*
X019074Y008379D01*
X019092Y008375D01*
X019109Y008367D01*
X019124Y008356D01*
X019136Y008343D01*
X019145Y008327D01*
X019151Y008309D01*
X019153Y008291D01*
X019151Y008273D01*
X019145Y008255D01*
X019136Y008239D01*
X019124Y008226D01*
X019109Y008215D01*
X019092Y008207D01*
X019074Y008203D01*
X019056Y008203D01*
X019038Y008207D01*
X019021Y008215D01*
X019006Y008226D01*
X018994Y008239D01*
X018985Y008255D01*
X018979Y008273D01*
X018977Y008291D01*
X023543Y011516D02*
X023723Y011516D01*
X023633Y011516D02*
X023633Y011786D01*
X023543Y011696D01*
X023837Y011741D02*
X023837Y011561D01*
X024018Y011741D01*
X024018Y011561D01*
X023973Y011516D01*
X023882Y011516D01*
X023837Y011561D01*
X023837Y011741D02*
X023882Y011786D01*
X023973Y011786D01*
X024018Y011741D01*
X024132Y011786D02*
X024132Y011516D01*
X024132Y011606D02*
X024312Y011786D01*
X024177Y011651D02*
X024312Y011516D01*
X023002Y017411D02*
X023004Y017442D01*
X023010Y017473D01*
X023020Y017503D01*
X023033Y017531D01*
X023050Y017558D01*
X023070Y017582D01*
X023093Y017604D01*
X023118Y017622D01*
X023146Y017637D01*
X023175Y017649D01*
X023205Y017657D01*
X023236Y017661D01*
X023268Y017661D01*
X023299Y017657D01*
X023329Y017649D01*
X023358Y017637D01*
X023386Y017622D01*
X023411Y017604D01*
X023434Y017582D01*
X023454Y017558D01*
X023471Y017531D01*
X023484Y017503D01*
X023494Y017473D01*
X023500Y017442D01*
X023502Y017411D01*
X023500Y017380D01*
X023494Y017349D01*
X023484Y017319D01*
X023471Y017291D01*
X023454Y017264D01*
X023434Y017240D01*
X023411Y017218D01*
X023386Y017200D01*
X023358Y017185D01*
X023329Y017173D01*
X023299Y017165D01*
X023268Y017161D01*
X023236Y017161D01*
X023205Y017165D01*
X023175Y017173D01*
X023146Y017185D01*
X023118Y017200D01*
X023093Y017218D01*
X023070Y017240D01*
X023050Y017264D01*
X023033Y017291D01*
X023020Y017319D01*
X023010Y017349D01*
X023004Y017380D01*
X023002Y017411D01*
X021147Y018302D02*
X021147Y018482D01*
X021147Y018392D02*
X020877Y018392D01*
X020967Y018302D01*
X020922Y018597D02*
X020877Y018642D01*
X020877Y018732D01*
X020922Y018777D01*
X021102Y018597D01*
X021147Y018642D01*
X021147Y018732D01*
X021102Y018777D01*
X020922Y018777D01*
X020877Y018892D02*
X021147Y018892D01*
X021057Y018892D02*
X020877Y019072D01*
X021012Y018937D02*
X021147Y019072D01*
X021102Y018597D02*
X020922Y018597D01*
X011312Y023516D02*
X011177Y023651D01*
X011132Y023606D02*
X011312Y023786D01*
X011132Y023786D02*
X011132Y023516D01*
X011018Y023561D02*
X011018Y023741D01*
X010837Y023561D01*
X010882Y023516D01*
X010973Y023516D01*
X011018Y023561D01*
X011018Y023741D02*
X010973Y023786D01*
X010882Y023786D01*
X010837Y023741D01*
X010837Y023561D01*
X010723Y023561D02*
X010723Y023741D01*
X010543Y023561D01*
X010588Y023516D01*
X010678Y023516D01*
X010723Y023561D01*
X010543Y023561D02*
X010543Y023741D01*
X010588Y023786D01*
X010678Y023786D01*
X010723Y023741D01*
X010428Y023516D02*
X010248Y023516D01*
X010338Y023516D02*
X010338Y023786D01*
X010248Y023696D01*
X010101Y022806D02*
X010101Y022536D01*
X009921Y022536D02*
X009921Y022806D01*
X010011Y022716D01*
X010101Y022806D01*
X009717Y022806D02*
X009717Y022536D01*
X009627Y022536D02*
X009807Y022536D01*
X009627Y022716D02*
X009717Y022806D01*
X009762Y021806D02*
X009672Y021806D01*
X009627Y021761D01*
X009762Y021806D02*
X009807Y021761D01*
X009807Y021716D01*
X009627Y021536D01*
X009807Y021536D01*
X009921Y021536D02*
X010101Y021716D01*
X010101Y021761D01*
X010056Y021806D01*
X009966Y021806D01*
X009921Y021761D01*
X009921Y021536D02*
X010101Y021536D01*
X010216Y021581D02*
X010396Y021761D01*
X010396Y021581D01*
X010351Y021536D01*
X010261Y021536D01*
X010216Y021581D01*
X010216Y021761D01*
X010261Y021806D01*
X010351Y021806D01*
X010396Y021761D01*
X010511Y021806D02*
X010511Y021536D01*
X010511Y021626D02*
X010691Y021806D01*
X010556Y021671D02*
X010691Y021536D01*
X005402Y020706D02*
X005402Y020549D01*
X004852Y020486D02*
X004852Y018837D01*
X005402Y018774D02*
X005402Y018616D01*
X005402Y019549D02*
X005402Y019774D01*
X004852Y020486D02*
X004900Y020521D01*
X004950Y020554D01*
X005002Y020585D01*
X005056Y020612D01*
X005111Y020636D01*
X005168Y020656D01*
X005225Y020674D01*
X005283Y020688D01*
X005342Y020699D01*
X005402Y020706D01*
X006505Y019351D02*
X006485Y019291D01*
X006461Y019232D01*
X006433Y019175D01*
X006402Y019120D01*
X006367Y019066D01*
X006330Y019015D01*
X006289Y018966D01*
X006245Y018920D01*
X006199Y018876D01*
X006150Y018835D01*
X006099Y018797D01*
X006046Y018763D01*
X005990Y018731D01*
X005933Y018704D01*
X005874Y018679D01*
X005814Y018659D01*
X005753Y018641D01*
X005691Y018628D01*
X005628Y018619D01*
X005565Y018613D01*
X005501Y018611D01*
X005437Y018613D01*
X005374Y018619D01*
X005311Y018628D01*
X005249Y018642D01*
X005188Y018659D01*
X005128Y018680D01*
X005069Y018704D01*
X005012Y018732D01*
X004956Y018764D01*
X004903Y018799D01*
X004852Y018836D01*
X005402Y020706D02*
X005464Y020710D01*
X005527Y020711D01*
X005589Y020707D01*
X005651Y020700D01*
X005712Y020690D01*
X005773Y020675D01*
X005833Y020657D01*
X005892Y020636D01*
X005949Y020611D01*
X006004Y020583D01*
X006058Y020552D01*
X006110Y020517D01*
X006160Y020479D01*
X006207Y020439D01*
X006252Y020395D01*
X006295Y020350D01*
X006334Y020301D01*
X006371Y020251D01*
X006404Y020198D01*
X006435Y020144D01*
X006462Y020087D01*
X006485Y020030D01*
X006505Y019971D01*
D11*
X009852Y020161D02*
X010602Y020161D01*
X010604Y020122D01*
X010610Y020083D01*
X010619Y020045D01*
X010632Y020008D01*
X010649Y019972D01*
X010669Y019939D01*
X010693Y019907D01*
X010719Y019878D01*
X010748Y019852D01*
X010780Y019828D01*
X010813Y019808D01*
X010849Y019791D01*
X010886Y019778D01*
X010924Y019769D01*
X010963Y019763D01*
X011002Y019761D01*
X011041Y019763D01*
X011080Y019769D01*
X011118Y019778D01*
X011155Y019791D01*
X011191Y019808D01*
X011224Y019828D01*
X011256Y019852D01*
X011285Y019878D01*
X011311Y019907D01*
X011335Y019939D01*
X011355Y019972D01*
X011372Y020008D01*
X011385Y020045D01*
X011394Y020083D01*
X011400Y020122D01*
X011402Y020161D01*
X012152Y020161D01*
X012152Y012161D01*
X009852Y012161D01*
X009852Y020161D01*
X016852Y020161D02*
X017602Y020161D01*
X017604Y020122D01*
X017610Y020083D01*
X017619Y020045D01*
X017632Y020008D01*
X017649Y019972D01*
X017669Y019939D01*
X017693Y019907D01*
X017719Y019878D01*
X017748Y019852D01*
X017780Y019828D01*
X017813Y019808D01*
X017849Y019791D01*
X017886Y019778D01*
X017924Y019769D01*
X017963Y019763D01*
X018002Y019761D01*
X018041Y019763D01*
X018080Y019769D01*
X018118Y019778D01*
X018155Y019791D01*
X018191Y019808D01*
X018224Y019828D01*
X018256Y019852D01*
X018285Y019878D01*
X018311Y019907D01*
X018335Y019939D01*
X018355Y019972D01*
X018372Y020008D01*
X018385Y020045D01*
X018394Y020083D01*
X018400Y020122D01*
X018402Y020161D01*
X019152Y020161D01*
X019152Y012161D01*
X016852Y012161D01*
X016852Y020161D01*
X022702Y013661D02*
X022702Y012661D01*
X024302Y012661D01*
X024302Y013661D01*
X022702Y013661D01*
X023252Y013161D02*
X023502Y013161D01*
X023502Y012911D01*
X023502Y013161D02*
X023502Y013411D01*
X023502Y013161D02*
X023902Y013411D01*
X023902Y012911D01*
X023502Y013161D01*
X024102Y013161D01*
X007062Y008480D02*
X007062Y007842D01*
X007025Y007842D01*
X006707Y007842D02*
X006670Y007842D01*
X006333Y007842D02*
X006296Y007842D01*
X005979Y007842D02*
X005942Y007842D01*
X005942Y008480D01*
X005979Y008480D01*
X006296Y008480D02*
X006707Y008480D01*
X007025Y008480D02*
X007062Y008480D01*
D12*
X005752Y005961D02*
X006002Y005711D01*
X006502Y005711D01*
X006752Y005961D01*
X007002Y005711D01*
X007502Y005711D01*
X007752Y005961D01*
X007752Y006461D01*
X007502Y006711D01*
X007002Y006711D01*
X006752Y006461D01*
X006502Y006711D01*
X006002Y006711D01*
X005752Y006461D01*
X005752Y005961D01*
X005474Y006421D02*
X005474Y008901D01*
X004529Y008901D01*
X004529Y006421D01*
X005474Y006421D01*
X007452Y008161D02*
X007952Y008161D01*
X005895Y011390D02*
X005620Y011390D01*
X005895Y011390D02*
X005895Y012216D01*
X005895Y014106D02*
X005895Y014933D01*
X001683Y014933D01*
X001683Y011390D01*
X003769Y011390D01*
X007252Y015661D02*
X007002Y015911D01*
X007002Y016411D01*
X007252Y016661D01*
X007002Y016911D01*
X007002Y017411D01*
X007252Y017661D01*
X007752Y017661D01*
X008002Y017411D01*
X008002Y016911D01*
X007752Y016661D01*
X008002Y016411D01*
X008002Y015911D01*
X007752Y015661D01*
X007252Y015661D01*
X009262Y021189D02*
X011742Y021189D01*
X011742Y022134D01*
X009262Y022134D01*
X009262Y021189D01*
X009262Y022189D02*
X011742Y022189D01*
X011742Y023134D01*
X009262Y023134D01*
X009262Y022189D01*
X009262Y023189D02*
X009262Y024134D01*
X011742Y024134D01*
X011742Y023189D01*
X009262Y023189D01*
X014687Y023090D02*
X015317Y023090D01*
X015002Y023911D02*
X015002Y024161D01*
X014687Y024232D02*
X015317Y024232D01*
X015002Y021911D02*
X015002Y021411D01*
X015002Y020911D02*
X015002Y020411D01*
X020529Y019501D02*
X020529Y017021D01*
X021474Y017021D01*
X021474Y019501D01*
X020529Y019501D01*
X022902Y017961D02*
X025102Y017961D01*
X025252Y017411D02*
X025252Y016911D01*
X025252Y016411D02*
X025252Y015911D01*
X025252Y015411D02*
X025252Y014911D01*
X025102Y014361D02*
X022902Y014361D01*
X022752Y014911D02*
X022752Y015411D01*
X022752Y015911D02*
X022752Y016411D01*
X022752Y016911D02*
X022752Y017411D01*
X022262Y012134D02*
X024742Y012134D01*
X024742Y011189D01*
X022262Y011189D01*
X022262Y012134D01*
X020002Y004411D02*
X020002Y003911D01*
X009002Y003911D02*
X009002Y004411D01*
D13*
X022952Y013161D03*
D14*
X022327Y013161D03*
X024677Y013161D03*
M02*
