G75*
G70*
%OFA0B0*%
%FSLAX24Y24*%
%IPPOS*%
%LPD*%
%AMOC8*
5,1,8,0,0,1.08239X$1,22.5*
%
%ADD10C,0.0680*%
%ADD11C,0.0820*%
%ADD12C,0.0800*%
%ADD13OC8,0.0680*%
%ADD14C,0.0730*%
%ADD15C,0.1780*%
%ADD16C,0.0820*%
%ADD17C,0.0675*%
%ADD18C,0.0680*%
D10*
X009202Y012661D02*
X009802Y012661D01*
X009802Y013661D02*
X009202Y013661D01*
X009202Y014661D02*
X009802Y014661D01*
X009802Y015661D02*
X009202Y015661D01*
X009202Y016661D02*
X009802Y016661D01*
X009802Y017661D02*
X009202Y017661D01*
X009202Y018661D02*
X009802Y018661D01*
X009802Y019661D02*
X009202Y019661D01*
X012202Y019661D02*
X012802Y019661D01*
X012802Y018661D02*
X012202Y018661D01*
X012202Y017661D02*
X012802Y017661D01*
X012802Y016661D02*
X012202Y016661D01*
X012202Y015661D02*
X012802Y015661D01*
X012802Y014661D02*
X012202Y014661D01*
X012202Y013661D02*
X012802Y013661D01*
X012802Y012661D02*
X012202Y012661D01*
X016202Y012661D02*
X016802Y012661D01*
X016802Y013661D02*
X016202Y013661D01*
X016202Y014661D02*
X016802Y014661D01*
X016802Y015661D02*
X016202Y015661D01*
X016202Y016661D02*
X016802Y016661D01*
X016802Y017661D02*
X016202Y017661D01*
X016202Y018661D02*
X016802Y018661D01*
X016802Y019661D02*
X016202Y019661D01*
X019202Y019661D02*
X019802Y019661D01*
X019802Y018661D02*
X019202Y018661D01*
X019202Y017661D02*
X019802Y017661D01*
X019802Y016661D02*
X019202Y016661D01*
X019202Y015661D02*
X019802Y015661D01*
X019802Y014661D02*
X019202Y014661D01*
X019202Y013661D02*
X019802Y013661D01*
X019802Y012661D02*
X019202Y012661D01*
D11*
X005002Y005661D03*
X006252Y006211D03*
X007252Y006211D03*
X005002Y009661D03*
X007502Y016161D03*
X007502Y017161D03*
X008502Y021661D03*
X008502Y022661D03*
X008502Y023661D03*
X012502Y023661D03*
X012502Y022661D03*
X012502Y021661D03*
X021002Y020261D03*
X021002Y016261D03*
X021502Y011661D03*
X025502Y011661D03*
D12*
X025502Y013161D03*
X021502Y013161D03*
D13*
X006252Y019661D03*
X005502Y019161D03*
X005502Y020161D03*
D14*
X014502Y020661D03*
X015502Y020661D03*
X015502Y021661D03*
X014502Y021661D03*
X007702Y008661D03*
X007702Y007661D03*
D15*
X004714Y011311D03*
X003533Y013161D03*
X005895Y013161D03*
D16*
X009502Y004531D02*
X009502Y003791D01*
X010502Y003791D02*
X010502Y004531D01*
X011502Y004531D02*
X011502Y003791D01*
X012502Y003791D02*
X012502Y004531D01*
X013502Y004531D02*
X013502Y003791D01*
X014502Y003791D02*
X014502Y004531D01*
X015502Y004531D02*
X015502Y003791D01*
X016502Y003791D02*
X016502Y004531D01*
X017502Y004531D02*
X017502Y003791D01*
X018502Y003791D02*
X018502Y004531D01*
X019502Y004531D02*
X019502Y003791D01*
D17*
X022154Y014661D02*
X022749Y014661D01*
X022749Y015661D02*
X022154Y015661D01*
X022154Y016661D02*
X022749Y016661D01*
X022749Y017661D02*
X022154Y017661D01*
X025254Y017661D02*
X025849Y017661D01*
X025849Y016661D02*
X025254Y016661D01*
X025254Y015661D02*
X025849Y015661D01*
X025849Y014661D02*
X025254Y014661D01*
D18*
X016402Y007111D03*
X016152Y005611D03*
X013752Y006061D03*
X013002Y007161D03*
X015252Y009011D03*
X013002Y010661D03*
X015002Y017161D03*
X015852Y022661D03*
M02*
